<svg version="1.1" id="Layer_1" xmlns="http://www.w3.org/2000/svg" xmlns:xlink="http://www.w3.org/1999/xlink" x="0px" y="0px"
	 width="100%" viewBox="0 0 800 800" enable-background="new 0 0 800 800" xml:space="preserve">
<path fill="#E7E7E8" opacity="1.000000" stroke="none" 
	d="
M602.027771,725.054504 
	C601.721863,725.703003 601.495911,726.861877 601.098083,726.924194 
	C594.046204,728.028809 586.997192,729.236633 579.900146,729.950928 
	C565.071411,731.443481 550.219849,732.718872 535.367493,733.961975 
	C529.295227,734.470215 523.199402,734.887512 517.109558,734.962891 
	C483.863739,735.374512 450.616943,735.762573 417.369293,735.940857 
	C407.618835,735.993164 397.860748,735.419434 388.113068,734.978943 
	C375.269318,734.398621 362.424896,733.784241 349.594604,732.967285 
	C336.158844,732.111755 322.730347,731.106567 309.315430,729.969360 
	C295.127472,728.766541 280.946014,727.456360 266.786133,725.961792 
	C252.511795,724.455139 238.227570,722.945312 224.019760,720.928955 
	C204.899246,718.215271 185.789795,715.339355 166.781219,711.942078 
	C142.438202,707.591370 118.136192,702.954895 93.947144,697.825562 
	C83.600189,695.631531 73.582909,691.882812 62.001755,688.417358 
	C62.001755,670.635803 61.358749,652.388245 62.198444,634.209290 
	C62.912949,618.740540 64.474915,603.195618 67.220284,587.965332 
	C70.647179,568.954102 75.142319,550.089233 80.139725,531.419067 
	C86.303085,508.393005 95.611183,486.506195 105.908379,464.991547 
	C119.689575,436.197662 136.500687,409.292084 155.766312,383.963898 
	C165.270187,371.469330 175.985840,359.874634 186.463303,348.149933 
	C193.857330,339.875702 201.305023,331.543823 209.560226,324.168335 
	C223.570633,311.650909 237.739578,299.203949 252.757431,287.948944 
	C270.327026,274.781586 288.438080,262.208069 307.137817,250.717178 
	C322.555542,241.243042 339.173950,233.722809 356.020142,225.235474 
	C366.574432,223.242325 376.327637,221.095047 386.170959,219.505936 
	C416.890961,214.546478 447.655182,212.990280 478.602020,217.937424 
	C501.829926,221.650604 521.573181,231.804504 537.770264,248.655518 
	C559.768616,271.542084 569.264465,299.507568 569.840210,330.800903 
	C570.450928,363.998749 563.818787,396.321533 557.438477,428.635620 
	C549.570923,468.482361 541.238220,508.336823 543.843689,549.248291 
	C545.543457,575.938843 548.070801,602.643616 551.809021,629.118652 
	C555.601990,655.981934 568.129150,679.646790 583.430786,701.730591 
	C589.081177,709.885376 595.797607,717.301453 602.027771,725.054504 
M359.530365,456.022217 
	C355.925903,461.000732 352.321411,465.979248 348.634399,471.071777 
	C347.426544,470.300720 346.444885,469.701233 345.490601,469.060883 
	C326.695740,456.448456 307.878052,443.869720 289.121826,431.200043 
	C278.554657,424.061981 267.140259,421.280151 254.498779,423.658875 
	C238.317444,426.703705 222.110855,429.614532 205.910294,432.556519 
	C204.051346,432.894104 202.161392,433.060944 200.205460,433.317505 
	C200.205460,431.974670 200.157288,431.315582 200.212433,430.665253 
	C201.814087,411.780243 203.482803,392.900665 205.001282,374.009003 
	C205.447662,368.455597 203.263367,363.859528 198.613678,360.717133 
	C188.443253,353.843536 175.869720,360.247345 174.950150,372.610291 
	C173.679688,389.690979 172.330017,406.766052 170.934952,423.837036 
	C170.530045,428.791901 168.951843,433.820312 169.464340,438.650208 
	C171.286011,455.817841 186.661011,466.809814 203.767792,463.673767 
	C220.456161,460.614410 237.189407,457.747406 253.772644,454.188782 
	C262.217957,452.376495 269.097534,453.879761 276.187561,458.848969 
	C294.446625,471.646240 313.083130,483.909119 331.666016,496.238953 
	C345.959808,505.722992 363.132965,502.574493 373.158386,488.735870 
	C390.348328,465.007690 407.485657,441.241302 424.598083,417.457153 
	C430.205444,409.663574 428.968994,400.397980 421.806549,395.372742 
	C414.645691,390.348572 405.523682,392.221252 399.959198,399.931976 
	C386.612213,418.426880 373.297028,436.944702 359.530365,456.022217 
z"/>
<path fill="#548D9E" opacity="1.000000" stroke="none" 
	d="
M602.446167,725.029236 
	C595.797607,717.301453 589.081177,709.885376 583.430786,701.730591 
	C568.129150,679.646790 555.601990,655.981934 551.809021,629.118652 
	C548.070801,602.643616 545.543457,575.938843 543.843689,549.248291 
	C541.238220,508.336823 549.570923,468.482361 557.438477,428.635620 
	C563.818787,396.321533 570.450928,363.998749 569.840210,330.800903 
	C569.264465,299.507568 559.768616,271.542084 537.770264,248.655518 
	C521.573181,231.804504 501.829926,221.650604 478.602020,217.937424 
	C447.655182,212.990280 416.890961,214.546478 386.170959,219.505936 
	C376.327637,221.095047 366.574432,223.242325 356.360046,225.123550 
	C363.894562,221.436234 371.704193,217.397125 379.830566,214.150925 
	C404.114349,204.450348 428.841705,196.005051 454.528870,190.859772 
	C468.303223,188.100693 482.188660,185.449448 496.153717,184.203018 
	C513.279053,182.674545 530.544189,182.049271 547.741333,182.164886 
	C566.805359,182.293060 585.596130,185.461853 604.019714,190.504578 
	C626.629761,196.693161 647.787231,206.034912 666.738403,219.966049 
	C686.211853,234.281158 702.228455,251.694580 714.413879,272.713593 
	C724.603149,290.289368 731.729614,308.980743 736.208008,328.680786 
	C738.051636,336.790802 738.830017,345.148163 739.985962,353.408020 
	C741.620667,365.088989 743.140137,376.786041 744.739014,388.472107 
	C746.138000,398.697571 747.440063,408.939026 749.032898,419.134644 
	C751.506348,434.966522 754.219116,450.760864 756.776123,466.579865 
	C758.890991,479.663025 760.869263,492.768433 763.014282,505.846527 
	C765.501587,521.011658 768.148926,536.150574 770.644287,551.314392 
	C772.822449,564.550964 774.943848,577.797485 776.984253,591.055908 
	C779.025574,604.320190 781.101562,617.582825 782.850647,630.887146 
	C784.243652,641.482910 781.960693,651.022217 774.396240,659.198792 
	C757.103577,677.890747 735.354309,689.581299 712.180542,698.827148 
	C685.544556,709.454468 657.586914,715.483459 629.523987,720.905884 
	C620.702881,722.610291 611.754578,723.656494 602.446167,725.029236 
M692.918152,578.448181 
	C713.503052,559.779053 723.678101,536.880432 719.990540,508.936707 
	C714.240601,465.363617 673.327820,443.793396 634.931702,460.214783 
	C604.251892,473.336060 583.568848,495.151917 578.559937,529.025879 
	C575.329163,550.875122 581.776489,569.426331 601.045166,582.350769 
	C628.894653,601.030823 664.796326,599.796692 692.918152,578.448181 
z"/>
<path fill="#3F3F41" opacity="1.000000" stroke="none" 
	d="
M359.749695,455.737732 
	C373.297028,436.944702 386.612213,418.426880 399.959198,399.931976 
	C405.523682,392.221252 414.645691,390.348572 421.806549,395.372742 
	C428.968994,400.397980 430.205444,409.663574 424.598083,417.457153 
	C407.485657,441.241302 390.348328,465.007690 373.158386,488.735870 
	C363.132965,502.574493 345.959808,505.722992 331.666016,496.238953 
	C313.083130,483.909119 294.446625,471.646240 276.187561,458.848969 
	C269.097534,453.879761 262.217957,452.376495 253.772644,454.188782 
	C237.189407,457.747406 220.456161,460.614410 203.767792,463.673767 
	C186.661011,466.809814 171.286011,455.817841 169.464340,438.650208 
	C168.951843,433.820312 170.530045,428.791901 170.934952,423.837036 
	C172.330017,406.766052 173.679688,389.690979 174.950150,372.610291 
	C175.869720,360.247345 188.443253,353.843536 198.613678,360.717133 
	C203.263367,363.859528 205.447662,368.455597 205.001282,374.009003 
	C203.482803,392.900665 201.814087,411.780243 200.212433,430.665253 
	C200.157288,431.315582 200.205460,431.974670 200.205460,433.317505 
	C202.161392,433.060944 204.051346,432.894104 205.910294,432.556519 
	C222.110855,429.614532 238.317444,426.703705 254.498779,423.658875 
	C267.140259,421.280151 278.554657,424.061981 289.121826,431.200043 
	C307.878052,443.869720 326.695740,456.448456 345.490601,469.060883 
	C346.444885,469.701233 347.426544,470.300720 348.634399,471.071777 
	C352.321411,465.979248 355.925903,461.000732 359.749695,455.737732 
z"/>
<path fill="#301230" opacity="1.000000" stroke="none" 
	d="
M692.650757,578.682129 
	C664.796326,599.796692 628.894653,601.030823 601.045166,582.350769 
	C581.776489,569.426331 575.329163,550.875122 578.559937,529.025879 
	C583.568848,495.151917 604.251892,473.336060 634.931702,460.214783 
	C673.327820,443.793396 714.240601,465.363617 719.990540,508.936707 
	C723.678101,536.880432 713.503052,559.779053 692.650757,578.682129 
z"/>
</svg>
